<?xml version="1.0" encoding="utf-8"?>
<!-- Generator: Adobe Illustrator 15.0.2, SVG Export Plug-In . SVG Version: 6.00 Build 0)  -->
<!DOCTYPE svg PUBLIC "-//W3C//DTD SVG 1.1//EN" "http://www.w3.org/Graphics/SVG/1.1/DTD/svg11.dtd">
<svg version="1.1" id="Layer_1" xmlns="http://www.w3.org/2000/svg" xmlns:xlink="http://www.w3.org/1999/xlink" x="0px" y="0px"
	 width="160px" height="90px" viewBox="0 0 160 90" enable-background="new 0 0 160 90" xml:space="preserve">
<g>
	<path fill="#010101" d="M26.661,30.106h-7.202v29.789h2.753v-13.5h3.959c0.32,0,7.799-0.096,7.833-8.27
		C34.004,30.308,26.74,30.107,26.661,30.106z M26.626,43.641h-4.414V32.824h4.466c0.189,0.011,4.611,0.338,4.611,5.262
		C31.223,43.559,26.813,43.64,26.626,43.641z"/>
	<path fill="#010101" d="M44.139,30.106h-7.166v29.751h2.718V46.395h8.258v13.5h2.752V43.641h-1.316
		c0.746-0.997,1.636-2.762,1.636-5.515C51.06,30.272,44.212,30.107,44.139,30.106z M48.197,38.09c0,5.466-3.928,5.549-4.093,5.551
		h-4.413V32.824h4.427C44.285,32.834,48.197,33.163,48.197,38.09z"/>
	<polygon fill="#010101" points="55.941,59.895 69.316,59.895 69.316,57.141 58.659,57.141 58.659,45.364 69.316,45.364 
		69.316,42.611 58.695,42.611 58.695,32.824 69.316,32.824 69.316,30.106 55.941,30.106 	"/>
	<polygon fill="#010101" points="112.691,30.143 93.135,30.143 93.135,32.895 107.737,32.86 90.968,59.895 110.524,59.895 
		110.524,57.141 95.923,57.141 	"/>
	<polygon fill="#010101" points="91.589,30.143 72.069,30.143 72.069,32.895 86.635,32.86 69.904,59.895 89.422,59.895 
		89.422,57.141 74.857,57.141 	"/>
	<path fill="#010101" d="M125.665,30.106c-8.201,0-14.873,6.674-14.873,14.876c0,8.202,6.672,14.875,14.873,14.875
		c8.202,0,14.876-6.674,14.876-14.875C140.541,36.78,133.867,30.106,125.665,30.106z M125.665,57.141
		c-6.683,0-12.121-5.439-12.121-12.124c0-6.683,5.438-12.122,12.121-12.122c6.687,0,12.122,5.438,12.122,12.122
		C137.787,51.701,132.352,57.141,125.665,57.141z"/>
</g>
</svg>
